<svg xmlns="http://www.w3.org/2000/svg" viewBox="0 0 64 64" role="img" aria-label="Mr. Henderson portrait">
<defs><linearGradient id="bg" x2="1" y2="1"><stop stop-color="#c9d7d1"/><stop offset="1" stop-color="#fff" stop-opacity=".48"/></linearGradient><clipPath id="clip"><rect width="64" height="64" rx="13"/></clipPath></defs>
<g clip-path="url(#clip)"><rect width="64" height="64" fill="url(#bg)"/><circle cx="32" cy="30" r="28" fill="#fff" opacity=".10"/><circle cx="52" cy="12" r="4" fill="#fff" opacity=".28"/>
<path d="M8 66Q11 49 25 47h14q14 2 17 19" fill="#596e64"/><path d="M25 48l7 9 7-9" fill="#f6f2ed"/><path d="M32 55l-2 9h4z" fill="#455568"/>
<ellipse cx="20" cy="32" rx="2.4" ry="4" fill="#dda783"/><ellipse cx="44" cy="32" rx="2.4" ry="4" fill="#dda783"/>
<path d="M28 43v7q4 5 8 0v-7" fill="#dda783"/><ellipse cx="32" cy="31" rx="11.8" ry="15" fill="#dda783"/>
<path d="M20 26 Q22 13 33 12 Q46 13 44 28 Q40 21 37 18 Q29 21 20 26Z" fill="#b9b7b0"/><path d="M24 29q3-1 5 0m6 0q3-1 5 0" stroke="#b9b7b0" stroke-width="1.25" stroke-linecap="round" fill="none"/>
<circle cx="27" cy="33" r="1.15" fill="#38343b"/><circle cx="37" cy="33" r="1.15" fill="#38343b"/>
<path d="M32 34.5l-1 2h2" stroke="#b78472" stroke-width=".8" fill="none"/><path d="M22 32h4m12 0h4" stroke="#3e4852" stroke-width="1.4"/><circle cx="27" cy="33" r="4" fill="none" stroke="#3e4852" stroke-width="1.4"/><circle cx="37" cy="33" r="4" fill="none" stroke="#3e4852" stroke-width="1.4"/><path d="M22 37l2 1m16-1l2-1M27 24h10" stroke="#9b7c6e" stroke-width=".7" opacity=".65"/>
<path d="M28.8 39 Q32 42.5 35.2 39" stroke="#965e5c" stroke-width="1.25" stroke-linecap="round" fill="none"/>

</g></svg>