<svg xmlns="http://www.w3.org/2000/svg" viewBox="0 0 64 64" role="img" aria-label="Leo portrait">
<defs><linearGradient id="bg" x2="1" y2="1"><stop stop-color="#d9d9ce"/><stop offset="1" stop-color="#fff" stop-opacity=".48"/></linearGradient><clipPath id="clip"><rect width="64" height="64" rx="13"/></clipPath></defs>
<g clip-path="url(#clip)"><rect width="64" height="64" fill="url(#bg)"/><circle cx="32" cy="30" r="28" fill="#fff" opacity=".10"/><circle cx="52" cy="12" r="4" fill="#fff" opacity=".28"/>
<path d="M8 66Q11 49 25 47h14q14 2 17 19" fill="#65726a"/><path d="M25 49q7 9 14 0" fill="none" stroke="#fff" stroke-width="2" opacity=".55"/>
<ellipse cx="19" cy="32" rx="2.4" ry="4" fill="#f6d5be"/><ellipse cx="43" cy="32" rx="2.4" ry="4" fill="#f6d5be"/>
<path d="M27 43v7q4 5 8 0v-7" fill="#f6d5be"/><ellipse cx="31" cy="31" rx="11.8" ry="15" fill="#f6d5be"/>
<path d="M19 27 Q18 12 31 11 Q44 11 43 27 Q40 17 33 19 Q30 26 19 27Z" fill="#3b3d46"/><path d="M23 28q3-1 5 0m6 0q3-1 5 0" stroke="#3b3d46" stroke-width="1.25" stroke-linecap="round" fill="none"/>
<circle cx="26" cy="32" r="1.15" fill="#38343b"/><circle cx="36" cy="32" r="1.15" fill="#38343b"/>
<path d="M31 34.5l-1 2h2" stroke="#b78472" stroke-width=".8" fill="none"/>
<path d="M28.8 39 Q32 42.5 35.2 39" stroke="#965e5c" stroke-width="1.25" stroke-linecap="round" fill="none"/>

</g></svg>